<svg width="789" height="789" viewBox="0 0 789 789" fill="none" xmlns="http://www.w3.org/2000/svg">
<path fill-rule="evenodd" clip-rule="evenodd" d="M3.05176e-05 788.608C2.57581e-05 679.724 88.2909 591.456 197.204 591.456C197.204 700.34 108.913 788.608 3.05176e-05 788.608ZM1.3282e-05 394.304C1.80415e-05 503.188 88.2909 591.456 197.204 591.456C197.204 700.34 285.495 788.608 394.407 788.608C503.319 788.608 591.611 700.34 591.611 591.456C591.611 700.34 679.903 788.608 788.815 788.608C788.815 679.724 700.523 591.456 591.611 591.456C700.523 591.456 788.815 503.188 788.815 394.304C788.815 285.421 700.523 197.152 591.611 197.152C700.523 197.152 788.815 108.883 788.815 -0.000568538C679.903 -0.000563777 591.611 88.2684 591.611 197.152C591.611 88.2684 503.319 -0.000556058 394.407 -0.000551298C285.495 -0.000546537 197.204 88.2685 197.204 197.152C197.204 88.2685 108.913 -0.000538818 -3.95361e-06 -0.000534058C8.05824e-07 108.883 88.2909 197.152 197.204 197.152C88.2909 197.152 8.52255e-06 285.421 1.3282e-05 394.304ZM591.611 197.152C482.699 197.152 394.407 285.421 394.407 394.304C503.319 394.304 591.611 306.035 591.611 197.152ZM394.407 394.304C394.407 285.421 306.117 197.152 197.204 197.152C306.117 197.152 394.407 108.883 394.407 -0.000551298C394.407 108.883 482.699 197.152 591.611 197.152C591.611 306.035 679.903 394.304 788.815 394.304C679.903 394.304 591.611 482.572 591.611 591.456C591.611 482.572 503.319 394.304 394.407 394.304ZM394.407 394.304C394.407 503.188 482.7 591.456 591.611 591.456C482.7 591.456 394.407 679.724 394.407 788.608C394.407 679.724 306.117 591.456 197.204 591.456C306.117 591.456 394.407 503.188 394.407 394.304ZM394.407 394.304C285.495 394.304 197.204 306.035 197.204 197.152C197.204 306.035 108.913 394.304 1.3282e-05 394.304C108.913 394.304 197.204 482.572 197.204 591.456C197.204 482.572 285.495 394.304 394.407 394.304Z" fill="#FFFDF6"/>
</svg>
