<svg xmlns="http://www.w3.org/2000/svg" width="789" height="789" fill="none" viewBox="0 0 789 789"><path fill="#FFFDF6" fill-rule="evenodd" d="M0 788.608c0-108.884 88.29-197.152 197.204-197.152 0 108.884-88.291 197.152-197.204 197.152Zm0-394.304c0 108.884 88.29 197.152 197.204 197.152 0 108.884 88.291 197.152 197.203 197.152s197.204-88.268 197.204-197.152c0 108.884 88.292 197.152 197.204 197.152 0-108.884-88.292-197.152-197.204-197.152 108.912 0 197.204-88.268 197.204-197.152 0-108.883-88.292-197.152-197.204-197.152 108.912 0 197.204-88.269 197.204-197.153-108.912 0-197.204 88.27-197.204 197.153 0-108.884-88.292-197.153-197.204-197.153S197.204 88.27 197.204 197.152C197.204 88.269 108.913-.001 0-.001c0 108.884 88.29 197.153 197.204 197.153C88.291 197.152 0 285.421 0 394.304Zm591.611-197.152c-108.912 0-197.204 88.269-197.204 197.152 108.912 0 197.204-88.269 197.204-197.152ZM394.407 394.304c0-108.883-88.29-197.152-197.203-197.152 108.913 0 197.203-88.269 197.203-197.153 0 108.884 88.292 197.153 197.204 197.153 0 108.883 88.292 197.152 197.204 197.152-108.912 0-197.204 88.268-197.204 197.152 0-108.884-88.292-197.152-197.204-197.152Zm0 0c0 108.884 88.293 197.152 197.204 197.152-108.911 0-197.204 88.268-197.204 197.152 0-108.884-88.29-197.152-197.203-197.152 108.913 0 197.203-88.268 197.203-197.152Zm0 0c-108.912 0-197.203-88.269-197.203-197.152 0 108.883-88.291 197.152-197.204 197.152 108.913 0 197.204 88.268 197.204 197.152 0-108.884 88.291-197.152 197.203-197.152Z" clip-rule="evenodd"/></svg>