<svg xmlns="http://www.w3.org/2000/svg" width="14" height="15" fill="none" viewBox="0 0 14 15"><g clip-path="url(#a)" opacity="0.8"><path fill="url(#b)" d="M10.719.5H3.28A3.281 3.281 0 0 0 0 3.781v7.438A3.281 3.281 0 0 0 3.281 14.5h7.438A3.281 3.281 0 0 0 14 11.219V3.78A3.281 3.281 0 0 0 10.719.5Z"/><path fill="url(#c)" d="M10.719.5H3.28A3.281 3.281 0 0 0 0 3.781v7.438A3.281 3.281 0 0 0 3.281 14.5h7.438A3.281 3.281 0 0 0 14 11.219V3.78A3.281 3.281 0 0 0 10.719.5Z"/><path fill="#fff" d="M7 2.031c-1.485 0-1.671.007-2.254.033-.583.027-.98.12-1.328.254-.36.14-.665.327-.969.631-.304.304-.49.61-.63.969-.136.347-.229.745-.255 1.327-.026.583-.033.77-.033 2.255 0 1.485.007 1.671.033 2.254.027.583.12.98.254 1.328.14.36.327.665.631.968.304.305.61.492.969.632.348.135.745.227 1.327.254.583.026.77.033 2.255.033 1.485 0 1.671-.007 2.254-.033.583-.027.98-.119 1.328-.254.36-.14.665-.327.968-.632.305-.303.491-.609.632-.968.134-.348.226-.746.254-1.327.026-.584.033-.77.033-2.255 0-1.485-.007-1.672-.033-2.255-.028-.582-.12-.98-.254-1.327a2.682 2.682 0 0 0-.632-.969 2.671 2.671 0 0 0-.968-.63c-.349-.136-.746-.228-1.328-.255-.584-.026-.77-.033-2.255-.033H7Zm-.49.986H7c1.46 0 1.634.005 2.21.031.534.025.823.114 1.016.189.255.099.437.217.628.409.192.191.31.373.41.629.074.192.164.481.188 1.015.026.576.032.75.032 2.209 0 1.46-.006 1.632-.032 2.209-.025.533-.114.823-.189 1.015a1.68 1.68 0 0 1-.409.628c-.191.192-.373.31-.628.41-.193.075-.482.163-1.016.188-.576.026-.75.032-2.21.032s-1.633-.006-2.21-.032c-.533-.025-.822-.114-1.015-.189a1.695 1.695 0 0 1-.629-.409 1.695 1.695 0 0 1-.409-.628c-.075-.193-.164-.482-.188-1.015-.027-.577-.032-.75-.032-2.21 0-1.461.005-1.633.032-2.21.024-.533.113-.822.188-1.015.1-.255.218-.438.41-.629.19-.191.373-.31.628-.41.193-.074.482-.163 1.016-.188.504-.023.7-.03 1.719-.03Zm3.41.908a.656.656 0 1 0 0 1.313.656.656 0 0 0 0-1.313ZM7 4.692a2.809 2.809 0 1 0 .001 5.617 2.809 2.809 0 0 0 0-5.617Zm0 .985a1.823 1.823 0 1 1 0 3.646 1.823 1.823 0 0 1 0-3.646Z"/></g><defs><radialGradient id="b" cx="0" cy="0" r="1" gradientTransform="matrix(0 -13.875 12.9049 0 3.719 15.578)" gradientUnits="userSpaceOnUse"><stop stop-color="#FD5"/><stop offset="0.1" stop-color="#FD5"/><stop offset="0.5" stop-color="#FF543E"/><stop offset="1" stop-color="#C837AB"/></radialGradient><radialGradient id="c" cx="0" cy="0" r="1" gradientTransform="matrix(1.21732 6.08158 -25.06844 5.01781 -2.345 1.508)" gradientUnits="userSpaceOnUse"><stop stop-color="#3771C8"/><stop offset="0.128" stop-color="#3771C8"/><stop offset="1" stop-color="#60F" stop-opacity="0"/></radialGradient><clipPath id="a"><path fill="#fff" d="M0 .5h14v14H0z"/></clipPath></defs></svg>