<svg width="48" height="47" viewBox="0 0 48 47" fill="none" xmlns="http://www.w3.org/2000/svg">
<circle cx="24.0214" cy="23.2161" r="23.1888" fill="#C60000"/>
<path fill-rule="evenodd" clip-rule="evenodd" d="M24.0215 9.30261C24.3377 9.30261 24.6411 9.42826 24.8647 9.65191C25.0884 9.87556 25.214 10.1789 25.214 10.4952V22.0233H36.7422C37.0585 22.0233 37.3618 22.149 37.5855 22.3726C37.8091 22.5963 37.9347 22.8996 37.9347 23.2159C37.9347 23.5322 37.8091 23.8355 37.5855 24.0592C37.3618 24.2828 37.0585 24.4085 36.7422 24.4085H25.214V35.9366C25.214 36.2529 25.0884 36.5563 24.8647 36.7799C24.6411 37.0036 24.3377 37.1292 24.0215 37.1292C23.7052 37.1292 23.4018 37.0036 23.1782 36.7799C22.9545 36.5563 22.8289 36.2529 22.8289 35.9366V24.4085H11.3007C10.9844 24.4085 10.6811 24.2828 10.4574 24.0592C10.2338 23.8355 10.1082 23.5322 10.1082 23.2159C10.1082 22.8996 10.2338 22.5963 10.4574 22.3726C10.6811 22.149 10.9844 22.0233 11.3007 22.0233H22.8289V10.4952C22.8289 10.1789 22.9545 9.87556 23.1782 9.65191C23.4018 9.42826 23.7052 9.30261 24.0215 9.30261Z" fill="white"/>
</svg>
